<?xml version="1.0" encoding="utf-8"?>
<!-- Svg Vector Icons : http://www.onlinewebfonts.com/icon -->
<!DOCTYPE svg PUBLIC "-//W3C//DTD SVG 1.1//EN" "http://www.w3.org/Graphics/SVG/1.1/DTD/svg11.dtd">
<svg version="1.1" xmlns="http://www.w3.org/2000/svg" xmlns:xlink="http://www.w3.org/1999/xlink" x="0px" y="0px" viewBox="0 0 256 256" enable-background="new 0 0 256 256" xml:space="preserve">
<metadata> Svg Vector Icons : http://www.onlinewebfonts.com/icon </metadata>
<g><g><path fill="#000000" d="M58.4,186.2c-12.8,0-25.7-4.9-25.7-4.9v34.1c0,0,12,9.7,24.4,9.7c13.2,0,27-9.7,27-9.7v-34.1C84.1,181.3,71.3,186.2,58.4,186.2z M73.8,209.4c-4.5,2.7-11,5.8-16.7,5.8c-4.9,0-10.4-2.9-14.1-5.4c0-4.4,0-9.4,0-17.7c4.7,1,10,1.8,15.4,1.8s10.8-0.8,15.4-1.8C73.8,200.3,73.8,204.9,73.8,209.4z"/><path fill="#000000" d="M54.5,26.4c-22.8,0-44.5,0-44.5,0l22.7,163.1c0,0,14.4,4.9,27.9,4.9c12.1,0,23.5-4.9,23.5-4.9l22.7-163.1C106.9,26.4,79.9,26.4,54.5,26.4z M75.2,182.1c-3.7,1.1-9.1,2.4-14.4,2.4c-6.8-0.1-14.1-1.5-19.1-2.8C40.1,170.7,24,55,21.4,36.3c12.6,0,33.1,0,33.1,0s27.1,0,41,0C92.9,55,76.6,171.9,75.2,182.1z"/><path fill="#000000" d="M106.1,198.3v-48.9l-2.5-8.3l-6.3-5.1v62.2L106.1,198.3L106.1,198.3z"/><path fill="#000000" d="M237,198.3v-47.8l8.9-15.1v63H237z"/><path fill="#000000" d="M200.8,184.5c0-2.5-2-4.6-4.6-4.6c-0.8,0-1.4,0.2-2.1,0.6c-24.9,6.2-46.3,0.7-49.1-0.1c-0.6-0.3-1.2-0.5-2-0.5c-2.5,0-4.6,2-4.6,4.6c0,2.2,1.6,3.9,3.7,4.4l0,0c28.9,8.1,55.3,0,55.3,0l-0.1-0.1C199.3,188.2,200.8,186.6,200.8,184.5z"/><path fill="#000000" d="M171.6,104.5c-41,0-74.3,14-74.3,31.4c0,17.3,33.3,31.4,74.3,31.4c41.1,0,74.4-14.1,74.4-31.4C246,118.5,212.7,104.5,171.6,104.5z M171.6,157.5c-35.6,0-64.5-9.9-64.5-22.2c0-12.2,28.9-22.2,64.5-22.2c35.6,0,64.5,9.9,64.5,22.2C236.1,147.6,207.2,157.5,171.6,157.5z"/><path fill="#000000" d="M237,198.3c-0.8,12-30.4,21.7-65.5,21.7c-35.1,0-64.6-9.7-65.4-21.7h-8.8c0,17.3,33.3,31.4,74.3,31.4c41.1,0,74.3-14,74.4-31.4H237z"/></g></g>
</svg>